<?xml version="1.0" encoding="utf-8"?>
<!-- Generator: Adobe Illustrator 24.1.0, SVG Export Plug-In . SVG Version: 6.00 Build 0)  -->
<svg version="1.1" id="Layer_2" xmlns="http://www.w3.org/2000/svg" xmlns:xlink="http://www.w3.org/1999/xlink" x="0px" y="0px"
	 viewBox="0 0 2000 2000" style="enable-background:new 0 0 2000 2000;" xml:space="preserve">
<g>
	<g>
		<path d="M60.8,1018.6c10.6-71.7,11.2-144.8-3-216.1c-6.6-33.2-18.5-64.9-25.5-97.9c-8.1-38.1-5.3-77.8,5.8-115
			c10.7-36,29-69.3,50.9-99.7c2.4-3.3,0.5-8.3-2.7-10.3c-3.8-2.3-7.9-0.6-10.3,2.7C33.6,541.3,5.2,613.3,14.2,686.9
			c4.4,35.7,17.9,69.4,25.9,104.4c6.7,29.2,10.8,58.9,12.6,88.8c2.7,44.9,0.2,90-6.4,134.5c-0.6,4,1,8,5.2,9.2
			C55.1,1024.9,60.2,1022.6,60.8,1018.6L60.8,1018.6z"/>
	</g>
</g>
<g>
	<g>
		<path d="M126.9,993.7c20.5-42.2,37.5-86.1,50.1-131.3c15.8-56.8,23.7-115.1,27.8-173.9c1.8-25.2,2.9-50.5,4.8-75.8
			c1.3-16.8,2.2-34.4,7.6-50.5c1.1-3.2,1.1-3.6,2.9-6.5c0.3-0.5,2-2.8,0.8-1.4c0.5-0.6,3.2-2.9,1.5-1.7c0.5-0.3,3.2-2,1.2-0.8
			c1.4-0.8,0.9-0.3,1.4-0.4c1.9-0.2-1.2-0.4,0.6,0c0.2,0.1,2.1,0.8,0.7,0.2c1.9,0.9,2.2,1.2,3.4,2.3c5.8,5.2,10.3,11.7,15.8,17.2
			c6.5,6.5,14,11.9,22.8,14.6c33.2,10.2,63.7-20,83-42.9c10.7-12.6,20.4-26.1,29.8-39.7c3.7-5.3,7.3-10.6,11.1-15.8
			c0.7-1,1.5-2,2.3-3.1c1.2-1.6-1,1.2,0.2-0.3c0.2-0.3,0.4-0.6,0.7-0.8c1.2-1.4,2.4-2.7,3.7-4c0.5-0.5-1.8,1-0.1,0.2
			c-1.5,0.7-3.8,1.1-6-0.2c-2.2-1.3-3-3.4-3.1-5.3c0,0.7,0.8-2.2,0-0.3c-0.2,0.4-0.3,1-0.5,1.4c-0.5,1.6,0.8-1.6-0.3,0.6
			c-0.9,1.7-1.7,3.5-2.7,5.2c-6.1,11.4-12.9,22.5-19.1,33.8c-19.7,35.9-36.3,73.9-45,114.1c-5.2,23.8-7.7,48.3-6.2,72.6
			c1.3,21.5,6.2,42.3,10.9,63.2c5.2,22.8,8.5,45.7,7.9,69.2c-0.7,27.5-5.9,54.7-14.5,80.8c-3,9.1-6.5,18.2-10.3,27
			c-1.6,3.7-1.1,8,2.7,10.3c3.2,1.9,8.6,1,10.3-2.7c20.8-47.3,31.5-100.1,25.1-151.7c-2.7-21.7-8.4-42.7-12.8-64.1
			c-4.8-23.7-5.8-47.7-3.3-71.8c4.5-43.5,20.3-85.3,40.1-123.9c7.1-13.8,14.8-27.2,22.5-40.7c3.7-6.4,10.3-15.1,10.2-22.9
			c-0.1-5.8-5.5-10-11.1-8.4c-3.8,1.1-6.6,4.4-9,7.3c-8.3,10.2-15.4,21.4-23,32.2c-10,14.1-20.5,27.8-32.6,40.2
			c-10.6,10.8-23.2,21.9-37.8,26c-6.4,1.8-13,2.2-20-0.3c-8.2-2.9-14.5-9.4-20.1-15.8c-8.8-10-20.2-24.5-35.1-16.2
			c-11.2,6.2-14.6,21.8-16.7,33.2c-3.9,20.8-5,42.2-6.2,63.3c-3.6,59.1-7.1,118.3-19.2,176.4c-10.6,50.4-26.4,99.8-47.2,147
			c-4.1,9.2-8.3,18.4-12.7,27.4C109.7,994.7,122.7,1002.4,126.9,993.7L126.9,993.7z"/>
	</g>
</g>
<g>
	<g>
		<path d="M392.1,971.4c34.6-52.6,57.2-113.9,58.6-177.2c0.5-24-2.5-47.7-5.2-71.5c-3-26.1-4.4-52.3-2.3-78.6
			c2.5-31.7,9.3-63.2,19.5-93.2c6.5-19,14.2-39,26.4-55.1c-0.7,0.9,1.3-1.6,1.8-2.1c0.8-0.9,1.6-1.6,2.5-2.4c0,0-1.3,0.5-0.1,0.1
			c1.1-0.4,0.3-0.2,0.3-0.2c0,0-0.5,0.2-0.9,0.2c-0.9,0.1-2.4-0.1-3.3-0.6c-0.1-0.1-2-2-1.7-1.6c0.6,0.8-0.5-1.6-0.2-0.5
			c0.2,0.8,0.7,3.3,0.7,2.8c-0.2-1,0.1,0.8,0.1,1.1c0.1,0.8,0.1,1.6,0.2,2.4c0.1,1.9,0.2,3.7,0.3,5.6c0.9,25.1,2.4,49.9,8.7,74.4
			c4.2,16.3,10.1,32.5,17.9,47.4c4.6,8.8,10.2,18,18.6,23.6c9.9,6.7,21.9,4.7,31.8-0.8c7.2-4,13.7-9.3,20-14.5
			c10-8.3,19.6-17,29.2-25.7c18.4-16.6,36.6-33.8,55.8-49.6c0.9-0.8,1.8-1.5,2.8-2.2c-1.8,1.4,0.7-0.5,1.2-0.9
			c0.5-0.3,1.1-0.6,1.6-1c1.5-1.1-1,0.3-0.4,0.1c-1.5,0.4-5-0.2-6.6-3c-0.8-1.3-0.5-2.5-0.7-3.5c-0.3-1.3,0.2-0.1-0.3,0.7
			c-0.6,0.9,0.9-1.8,0.3-0.8c-0.2,0.3-0.3,0.7-0.5,1c-0.4,0.8-0.9,1.5-1.3,2.3c-1.2,1.9-2.5,3.8-3.7,5.7c-3.6,5.2-7.3,10.2-11,15.3
			c-25.3,34.8-48,71.1-64,111.2c-10.2,25.5-17.4,52.1-21.1,79.3c-3.3,25.2-2.8,50.4-1.1,75.7c1.6,25,2.6,49.9-0.2,74.9
			c-3.6,32-12.2,63.6-23.6,93.6c-4,10.6-8.5,21.1-13.4,31.3c-4.1,8.7,8.8,16.3,13,7.6c25.4-53.1,41.6-111.9,41-171.1
			c-0.2-24-3.1-48-3.2-72c0-28,4-55.8,11.8-82.7c13.2-45.6,36.4-87.3,63.5-125.9c7.9-11.2,16.5-22,23.9-33.5
			c1.9-2.9,3.9-6.1,4.6-9.6c1.2-5.6-2.4-11.4-8.4-11.5c-3.4,0-6.3,1.8-8.9,3.7c-5.6,4.1-10.8,8.7-16,13.3
			c-22.3,19.5-43.8,39.8-66.2,59.2c-6.9,6-13.7,11.9-21.3,16.9c-2.6,1.7-5.3,3.3-8.1,4.5c1.6-0.7-1.6,0.5-2.3,0.7
			c-0.5,0.1-1,0.2-1.5,0.3c-1.9,0.5,0.7,0-0.4,0.1c-1.1,0-2.1,0-3.2,0c-1.3,0,1.7,0.4,0,0c-0.5-0.1-1.1-0.2-1.7-0.4
			c-0.4-0.1-0.8-0.2-1.1-0.4c-1.6-0.5,1.1,0.6-0.1,0c-0.9-0.5-3.1-1.9-3.1-1.9c-7.7-6.1-13.5-18.9-17.8-28.5
			c-12.1-27.5-17.5-57.2-18.9-87.1c-0.4-8.6-0.2-17.2-1.1-25.7c-0.7-6.2-2.4-13.7-9.8-14.7c-5.8-0.7-10.5,3.5-14.1,7.6
			c-5.2,6.2-9.4,13.2-13.2,20.3c-12.4,23.5-21,49.1-27.4,74.8c-7.7,31.4-12.1,63.9-11.7,96.2c0.3,24.9,3.9,49.5,6.4,74.2
			c2.7,25.9,3.3,52-0.6,77.9c-4.8,32.3-14.7,63.7-29,93c-7.3,15-15.6,29.4-24.8,43.3C373.8,971.9,386.8,979.4,392.1,971.4
			L392.1,971.4z"/>
	</g>
</g>
<g>
	<g>
		<path d="M875.7,588.2c-11.8-3.8-24.3,0.9-34.4,7c-14,8.4-26,20.3-36.7,32.5c-28.7,32.6-51.5,71.1-68.3,111.1
			c-16.9,40.1-27.1,83-31.5,126.3c-1.9,18.6-2.6,37.4-1.4,56.1c0.9,14.6,2.8,29.7,8,43.4c3.6,9.4,8.9,19.7,18.4,24.4
			c9.4,4.7,19.7,2.6,28.6-2.1c10.3-5.4,19.2-13.8,27.1-22.1c10.1-10.7,19.2-22.4,27.8-34.3c14.9-20.6,28.3-42.2,41-64.3
			c17.3-30.1,32.2-61.7,42-95c8-27.2,12.9-55.8,12.4-84.2c-0.2-11.3-1.3-22.5-2.5-33.7c-1.9-17-4.1-36.2-13.6-51
			C888.4,595.6,883,590.8,875.7,588.2c-9.1-3.4-13,11.1-4,14.5c11.8,4.4,15.1,23.9,17.1,34.7c2.5,13.5,3.7,27.4,4.4,41.2
			c1.3,22.3-1.1,44.6-5.9,66.4C875,801.5,846.6,853.2,815,901.3c-14.3,21.7-29.6,43.7-48.9,61.3c-6.9,6.3-14.3,11.7-22.3,13.7
			c-0.5,0.1-1,0.2-1.5,0.3c0.3,0,1.6-0.1,0.3-0.1c-0.8,0-1.7,0-2.5,0c-1.6,0,0.9,0.4-1-0.1c-0.4-0.1-0.9-0.2-1.3-0.4
			c-1.6-0.4,0.2,0.2-0.3,0c-0.8-0.4-1.5-0.8-2.2-1.2c-1.7-1,0.2,0.4-1.3-1c-0.6-0.6-1.2-1.2-1.8-1.8c-1.5-1.5-0.8-0.9-1.5-1.9
			c-6.1-9.2-8.7-20-10.5-31.3c-2.5-15.4-2.8-31.3-2.3-46.9c1.3-39.6,8.6-79.2,20.8-116.9c12.8-39.7,32.3-77.3,56.4-111.2
			c10.4-14.6,21.8-28.6,34.9-40.8c8.9-8.3,19.5-17.1,30.9-20.2c2.8-0.8,3.2-0.8,5.4-0.9c0.5,0,3.7,0.3,2.2,0
			c1.1,0.2,2.2,0.5,3.3,0.8C880.9,605.6,884.9,591.1,875.7,588.2z"/>
	</g>
</g>
<g>
	<g>
		<path d="M1032.8,920.8c4.1-77.4,7.2-155,4.7-232.5c-0.7-22.7-2-45.4-4.4-67.9c-0.9-8.9-2.1-17.7-3.5-26.5
			c-1.6-10.1-4-20.1-4.3-30.4c-0.2-7.4,0.2-15.9,4.7-22.2c3.3-4.6,8.5-6.7,14.1-7.9c14.1-2.9,30,1.7,42,9.2
			c14.4,9,22.5,23.6,22.3,40.6c-0.2,18.1-8,36.6-19.1,50.7c-10.6,13.5-25.4,22.5-41.6,27.9c-13,4.3-26.5,6.2-39.6,10
			c-9.4,2.7-20.1,8-19.4,19.4c0.8,12.3,14.8,19.8,24.2,25c16.4,9.2,33.5,17.2,49.6,27.1c18.4,11.3,35,24.8,49.2,41.1
			c24.5,27.9,40.9,62.1,51.6,97.4c2.3,7.7,4.4,15.4,6.2,23.2c2.2,9.4,16.7,5.4,14.5-4c-8.5-36.1-21.9-71.5-42.6-102.4
			c-11.6-17.3-25.4-33.2-41.4-46.7c-16.8-14.2-35.6-25.4-55-35.6c-8-4.2-16.1-8.3-24-12.7c-5.4-3-11.2-6.1-15.3-10.3
			c-0.8-0.8-1.6-1.7-1.3-1.4c-0.3-0.4-0.6-0.9-0.8-1.3c0.7,1.7,0.2,0.4,0.1,0.2c-1.1-1.6,0.2,0.7-0.1-1.2c0.2,1.6-0.3,0.9,0.1,0.2
			c-0.1,0.2-0.9,0.6,0.2-0.2c-1.9,1.3,1.1-0.8,0.2-0.1c-0.7,0.5,1.2-0.7,1.7-1c0.5-0.3,1-0.5,1.4-0.7c1.2-0.5-1.7,0.6,0.4-0.2
			c1.3-0.5,2.7-0.9,4-1.3c13.4-3.9,27.3-5.8,40.6-10.3c17.5-5.9,33.9-15.3,45.9-29.5c24-28.2,37.4-75.4,9.4-105.6
			c-11.5-12.4-28.1-20.1-44.6-22.5c-14.5-2.1-32.1-0.6-42.6,10.9c-18.4,20.1-7.7,51.2-4.3,75c0.1,0.4,0.5,3.6,0.2,1.8
			c0.1,1.1,0.3,2.2,0.4,3.2c0.3,2.2,0.6,4.5,0.8,6.7c0.6,4.9,1.1,9.8,1.5,14.7c1,11.4,1.8,22.9,2.4,34.4
			c3.7,72.6,1.4,145.5-1.9,218.1c-0.6,12.5-1.2,25-1.9,37.5C1017.3,930.4,1032.3,930.4,1032.8,920.8L1032.8,920.8z"/>
	</g>
</g>
<g>
	<g>
		<path d="M1190,611.5c58.6-21.5,119.7-37.6,181.9-43.8c21.5-2.2,43-2.5,64.6-3.2c28.3-1,56.8-4.4,83.7-13.5
			c34.6-11.7,65.6-32.2,89.8-59.5c6.4-7.2-4.2-17.8-10.6-10.6c-21,23.6-47.3,42.3-77,53.4c-26.4,9.9-54.3,14-82.4,15.1
			c-21.3,0.9-42.6,1-63.9,3c-26.6,2.5-53.1,6.6-79.2,12.2c-37.8,8.1-74.8,19.2-111,32.5C1177,600.4,1180.9,614.9,1190,611.5
			L1190,611.5z"/>
	</g>
</g>
<g>
	<g>
		<path d="M1393.9,914.1c1.5-56.5,8.7-112.8,21.9-167.8c4.8-19.9,9.8-39.6,12.1-60c2.4-21.6,2.1-43.6-0.5-65.2
			c-4.2-34.2-13.8-67.3-27.1-99c-1.6-3.7-5-6.4-9.2-5.2c-3.5,1-6.8,5.5-5.2,9.2c20.4,48.7,32.4,101.1,27.7,154
			c-1.7,19.5-6.4,38.5-11,57.5c-7,28.5-12.5,57.2-16.4,86.2c-4,30-6.5,60.1-7.3,90.3C1378.6,923.8,1393.6,923.8,1393.9,914.1
			L1393.9,914.1z"/>
	</g>
</g>
<g>
	<g>
		<path d="M1459.7,942.4c20.4-38.5,38.9-78,55.4-118.4c13.1-32.1,24.4-64.9,35.3-97.8c13.1-39.3,29.3-76.5,54.5-109.7
			c0.8-1.1,1.6-2.1,2.4-3.2c-1,1.3,0.3-0.3,0.6-0.8c0.8-1,1.6-2,2.4-3c3.4-4.2,6.8-8.4,10.3-12.6c8.7-10.2,17.8-20,27.7-29
			c8.2-7.3,17.5-14.6,27.5-17.3c1.3-0.3,2.4-0.5,4.8-0.2c-1.7-0.2,1.3,0.5,1.7,0.6c-0.4-0.1-1.5-0.8-0.7-0.3
			c1.3,0.8,2.2,2.1,0.6,0.2c0.5,0.6,1.3,1.4,1.9,1.9c-2-1.8-0.7-1.1-0.2-0.1c0.3,0.5,0.6,1.1,0.9,1.6c1.1,1.9-0.2-0.9,0.1,0.2
			c0.2,0.8,0.6,1.5,0.8,2.3c0.6,1.9,1,3.8,1.4,5.7c0.2,1,0.3,2,0.5,3.1c0.3,1.7-0.2-1.9,0,0.2c0.1,0.7,0.2,1.4,0.2,2.1
			c0.3,3.1,0.5,6.2,0.7,9.3c0.4,8.2,0.2,16.5,0,24.7c-0.9,27.3-3.8,54.5-6.9,81.6c-9.6,82.8-22.8,165.2-37.9,247.1
			c-1.3,7.2-2.7,14.4-4,21.5c-1.8,9.4,12.7,13.5,14.5,4c15.6-82.3,29-165.1,39.5-248.3c4-31.4,7.6-62.9,9.3-94.5
			c0.9-16,1.6-32.4-0.4-48.3c-1-8-2.5-16.9-8.1-23.1c-9.3-10.3-24.8-6.4-35.5-0.5c-22.8,12.7-41,34.6-57.2,54.7
			c-21.9,27.2-39.6,56.7-52.7,89.2c-13.8,34.3-23.8,70.1-36.8,104.7c-14.4,38.2-30.9,75.6-49,112.2c-5.4,10.9-11,21.8-16.7,32.6
			C1442.2,943.4,1455.2,950.9,1459.7,942.4L1459.7,942.4z"/>
	</g>
</g>
<g>
	<g>
		<path d="M1513.4,716.6c75,7.4,150.1,14.9,225.1,22.3c4,0.4,7.5-3.7,7.5-7.5c0-4.4-3.5-7.1-7.5-7.5c-75-7.4-150.1-14.9-225.1-22.3
			c-4-0.4-7.5,3.7-7.5,7.5C1505.9,713.4,1509.3,716.2,1513.4,716.6L1513.4,716.6z"/>
	</g>
</g>
<g>
	<g>
		<path d="M1882.8,562.2c-8.6,45.4-23.7,92.6-55.4,127.5c-5.3,5.8-10.9,11.2-17,16.2c-3.3,2.7-6.4,5-10.6,7.8
			c-4.5,3-9.3,5.7-13.6,9.1c-15.9,12.2-25.7,31.6-30.9,50.5c-11.2,40.2-5.6,85.5,11,123.3c11.4,26,33.5,56.8,64.4,59.3
			c17.8,1.4,36.1-0.3,53.9-0.6c28.9-0.5,57.7-0.6,86.6-0.3c4.9,0.1,9.8,0.1,14.7,0.2c9.7,0.1,9.7-14.9,0-15
			c-24.5-0.4-48.9-0.5-73.4-0.2c-24.2,0.2-48.3,1.2-72.5,1.3c-2.6,0-5.2,0-7.8-0.2c-1-0.1-1.9-0.2-2.9-0.2c-1.7-0.1,0.2,0.1,0.1,0
			c-0.5-0.1-0.9-0.1-1.4-0.2c-1.5-0.3-3-0.8-4.5-1.3c-1.3-0.4-1.9-0.8-0.7-0.3c-1.7-0.8-3.5-1.6-5.1-2.6
			c-14.7-8.2-25.3-22.1-33.1-36.7c-18.2-34-24.7-77-16.6-114.7c3.8-17.6,11.1-35.4,24.5-47.9c7.6-7.1,17.4-11.7,25.6-18.1
			c5.7-4.5,11.2-9.3,16.3-14.6c30.7-31.5,48.1-73.8,58.3-116c1.8-7.4,3.4-14.8,4.8-22.2C1899.1,556.7,1884.6,552.7,1882.8,562.2
			L1882.8,562.2z"/>
	</g>
</g>
<g>
	<g>
		<path d="M372.8,1560.2c15.5-72.7,30.8-145.9,52-217.2c2.6-8.7,5.3-17.4,8.3-26c1.1-3.2,2.3-6.3,3.5-9.4c0.3-0.7,0.5-1.3,0.8-2
			c0.1-0.3,1-2.5,0.5-1.2c-0.6,1.3,0.3-0.7,0.5-1c0.3-0.6,0.5-1.2,0.8-1.8c1.6-3.5,3.5-6.6,5.4-9.8c0.7-1.1-1.4,1.5-0.5,0.6
			c0.2-0.2,0.3-0.5,0.5-0.6c0.3-0.1,1-0.9,1.1-1.1c0.3-0.5-2,1.3-0.5,0.4c1.4-0.8-2.2,0.7-0.7,0.3c1.1-0.3-2.6,0.1-1.1,0.2
			c0.6,0-0.2,0.4-1.4-0.2c-0.7-0.4-1.5-0.8-2.2-1.3c-0.6-0.9-0.7-1-0.3-0.3c0.2-0.2,0.4,1.8,0,0c0.2,0.9,0.5,1.8,0.8,2.6
			c2.2,8.4,3.8,16.8,7.2,24.9c7.9,18.9,22.3,33.7,39.8,44c29.4,17.4,70.2,24.9,101.9,9.3c28.4-13.9,41.7-49.4,41.8-79.5
			c0-4.1,0-8.9-2.1-12.5c-3-5.2-9.5-5.5-13.6-1.6c-6.3,6-9.8,16.1-13.2,23.8c-16.5,37.2-28.9,76.4-39,115.7
			c-12.3,48-20,97.1-21.9,146.7c-0.3,8.7-0.5,17.4-0.4,26.1c0,9.7,15,9.7,15,0c-0.2-88.7,18.8-176.8,50.5-259.5
			c4.6-12,9.4-24.1,15.5-35.5c0.9-1.7,1.8-3.3,2.8-4.9c0.4-0.6,0.8-1.2,1.2-1.7c0.4-0.5-1.3,1.3,0.1,0c0.2-0.2-1.5,1.1-2.3,1.3
			c-3.8,1-6-1-7.5-2.8c-0.1-0.1-1.1-1.5-0.5-1c0.3,0.2,0.3,1.6,0.4,1.9c-0.5-2.4,0,1.1,0,1.8c1,25.9-10.5,58.4-35.9,69.6
			c-29.5,13.1-67.7,3-92.9-15c-16-11.4-26-27.4-30.5-46.4c-1.9-8.1-4.2-23.3-16.2-20.2c-6.5,1.6-10.3,8.7-13.1,14.2
			c-6,12.1-10.2,25.1-14.2,37.9c-19.4,62.2-33.1,126.4-47,189.9c-2.7,12.4-5.4,24.9-8,37.3C356.3,1565.6,370.8,1569.7,372.8,1560.2
			L372.8,1560.2z"/>
	</g>
</g>
<g>
	<g>
		<path d="M659.6,1602.1c36.3-61.1,61.9-128.3,70.6-199c4.3-35.2,5.4-70.8,13.3-105.5c7.9-34.6,22.2-67.3,42.2-96.6
			c5.6-8.3,14.3-21.4,23.6-23.5c-1.2,0.3,0.3,0.1,0.3,0.2c0,0,0.6,0.2,0.7,0.2c0,0-1.8-1-1-0.4c1.8,1.4-0.8-1.3,0.9,0.7
			c1.1,1.3-0.7-1.2-0.1-0.2c0.3,0.5,0.6,0.9,0.9,1.4c0.3,0.5,0.5,1.1,0.8,1.6c0.2,0.4,0.4,1.3-0.3-0.6c0.2,0.4,0.3,0.8,0.5,1.3
			c2.4,8.1,3,13.4,3.7,21.2c1.1,12.4,1.6,24.9,2.1,37.4c1.7,38.8,3.3,77.6,6.4,116.3c1.6,19.6,4.3,39,5.9,58.6
			c1.7,20.9,0.5,42.2-1.7,63.1c-3.8,36.7-12.6,72.8-24.8,107.5c-3.7,10.5-7.7,20.9-12,31.1c-1.6,3.8-1.1,8,2.7,10.3
			c3.1,1.9,8.7,1,10.3-2.7c26.5-62.7,43.4-131.3,41-199.7c-0.6-16.7-3.3-33.3-4.9-50c-3.8-39.3-5.7-78.8-7.3-118.3
			c-0.6-14.7-1.1-29.4-2.1-44.1c-0.6-9.7-1.3-19.5-3.4-29c-1.3-5.8-3.3-12.2-7.8-16.4c-8.2-7.6-19.3-3.6-27,2.6
			c-11,8.8-19.1,21.4-26.4,33.3c-9.3,15-17.4,30.7-24,47.1c-14.9,36.8-20.1,75.8-23.7,115c-2.8,31-6.2,61.6-13.9,91.8
			c-9.5,37.4-23.7,73.4-41.5,107.6c-5.3,10.2-11,20.3-16.9,30.2C641.7,1602.9,654.6,1610.4,659.6,1602.1L659.6,1602.1z"/>
	</g>
</g>
<g>
	<g>
		<path d="M686.5,1434.2c59.4,0.7,118.9,1.5,178.3,2.2c9.7,0.1,9.7-14.9,0-15c-59.4-0.7-118.9-1.5-178.3-2.2
			C676.9,1419.1,676.9,1434.1,686.5,1434.2L686.5,1434.2z"/>
	</g>
</g>
<g>
	<g>
		<path d="M1070.1,1243.4c-38.2,9.8-74.5,30.3-102,58.6c-23.9,24.5-41.3,55.3-49.4,88.6c-7.4,30.3-6.8,61.4-1.9,92
			c4.5,28,11.8,55.4,22.8,81.6c5.5,13.1,11.7,26.2,20.2,37.7c5.8,7.9,13.3,16.5,23.2,19c24.2,6,37.9-27.8,43.3-45.4
			c9.7-31.7,9.9-67.6-2.6-98.5c-4.8-11.9-11.7-22.8-17-34.4c-1.6-3.5-2.8-7-2.4-10.2c-0.2,1.4,0.2-0.7,0.4-1.2
			c0.4-1.2-0.5,0.9,0.1-0.3c0.1-0.3,0.3-0.6,0.4-0.8c0.2-0.4,0.5-0.7,0.7-1.1c0.3-0.4-1.1,0.9,0.2-0.2c0.6-0.5,3-2.5,1.3-1.4
			c1.1-0.8,2.3-1.5,3.5-2.2c0.4-0.2,2.4-1,0.9-0.4c0.8-0.3,1.6-0.6,2.4-0.9c1.9-0.6,3.8-1.1,5.7-1.5c10.5-2.1,23.3-1.6,34.6-0.7
			c8.9,0.7,17.7,1.9,26.5,3.3c4,0.6,8-1,9.2-5.2c1-3.6-1.2-8.6-5.2-9.2c-15.8-2.5-31.9-4.7-48-4.6c-9.3,0-19.2,0.7-28.1,3.8
			c-14.9,5.3-23.6,18.4-17.8,34.3c3.9,10.8,10.4,20.5,15.3,30.8c6.8,14.5,10.8,30.2,11.5,46.3c0.7,15.5-1,31.1-5.1,46.1
			c-3.1,11.4-7.4,23.7-15.2,32.8c-1.1,1.3-3.3,3.5-4,4c-2,1.5-2.7,1.8-4.2,2.2c-1.3,0.4,0.8,0-1,0.2c-0.6,0.1-2.3-0.3-1,0
			c-2.4-0.5-2.2-0.5-4.2-1.7c-7.9-4.7-14.1-14.9-18.9-23.3c-14.5-25.6-23.9-54.7-29.7-83.4c-5.1-24.9-8.3-50.1-6.3-75.5
			c2.7-34.2,15.5-67.2,36.4-94.3c25.8-33.5,63.6-57.4,103.6-68.9c1.8-0.5,3.7-1,5.5-1.5C1083.4,1255.5,1079.5,1241,1070.1,1243.4
			L1070.1,1243.4z"/>
	</g>
</g>
<g>
	<g>
		<path d="M1325.9,1276.8c-22.7-5.6-46.8-9.7-70.1-5.8c-11,1.8-21.6,6.1-30,13.6c-9.2,8.2-13.9,19.8-15.4,31.8
			c-2.3,17.7,1.8,35.5,4.6,52.9c1.7,10.1,3.2,20.3,4.6,30.4c4.3,31.6,7.6,67,8.1,100.2c0.5,32.5,0.1,68-12.3,98.6
			c-1.8,4.4-5.2,10.9-8.7,15.5c0.7-0.9-0.3,0.4-0.6,0.7c-0.4,0.5-0.9,1-1.4,1.5c-1,1.1-2,2.1-3.1,3.1c-0.5,0.4-1,0.9-1.5,1.3
			c-0.3,0.2,0.5-0.3-0.6,0.4c-1.2,0.8-2.4,1.6-3.6,2.3c-3,1.7-4.2,2.1-7.9,3.1c-3.7,1-6.4,1.3-10.3,1.5c-10.6,0.4-21-1.7-31.2-4.7
			c-7.2-2.1-14.2-4.7-21.2-7.5c-3.8-1.5-8.2,1.7-9.2,5.2c-1.2,4.3,1.5,7.7,5.2,9.2c20.9,8.5,44.5,15.9,67.3,11.5
			c13.4-2.6,24.2-10.5,32-21.4c8.1-11.4,12.6-25.5,15.7-39.1c3.8-17,5.4-34.6,6.1-52c1.4-35.8-1.1-71.8-5.1-107.4
			c-2.5-22.4-5.8-44.8-9.6-67c-3.5-20.5-8.2-49.1,12.5-62.3c18.6-11.9,44.7-8.6,65.3-4.7c5.5,1,11,2.3,16.4,3.6
			C1331.3,1293.6,1335.3,1279.2,1325.9,1276.8L1325.9,1276.8z"/>
	</g>
</g>
</svg>
