<svg id="Layer_1" data-name="Layer 1" xmlns="http://www.w3.org/2000/svg" viewBox="0 0 27.07 31.64"><path d="M20.78,24.13V24l-.18,0v-.2l-.21,0,0-.17-.17,0,0-.17-.34,0,0-.18h-.16l0-.18h-.21v-.2l-.18,0,0-.18H19l0-.18-.39,0v-.17l-.18,0,0-.21H18.2l0-.17-.17,0,0-.17h-.21l0-.18h-.18v-.17l-.18,0c0-.11,0-.24-.19-.21v-.19H17l0-.18-.2,0v-.17l-.18,0,0-.21h-.17l0-.18-.18,0v-.17l-.21,0,0-.17-.17,0,0-.17-.17,0,0-.21h-.18l0-.17L15,19v-.17l-.18,0,0-.18h-.18l0-.2-.38,0,0-.17-.18,0L14,18l-.17,0,0-.17-.18,0V17.6l-.18,0,0-.21H13.2c0-.09,0-.23-.19-.17,0-.13,0-.23-.19-.21l0-.17-.17,0,0-.2-.2,0,0-.18-.17,0,0-.17-.18,0V16l-.18,0V15.8l-.17,0,0-.21h-.2l0-.18-.16,0,0-.17c-.12,0-.21,0-.18-.19l-.18,0,0-.22c-.18,0-.23-.07-.23-.21s-.06-.17-.18-.15l0-.19-.16,0,0-.21L10,14v-.18H9.82l0-.35-.16,0,0-.19-.18,0,0-.37-.17,0V12.6H9.05c0-.06,0-.12,0-.18s0-.28-.21-.21l0-.2-.18,0v-.17l-.18,0,0-.35-.17,0V11.2l-.21,0L8,11H7.83v-.18l-.17,0,0-.38-.17,0,0-.17-.17,0,0-.18H7l0-.19H6.45l0,.18-.57,0,0,.18H4.66l0,.17H2.08c0-.15-.11-.17-.24-.17H1.09l0-.19H.48l0-.19H.05c-.13,0-.2,0-.18-.18l-.38,0,0-.21h-.4l0-.18-.36,0,0-.17-.38,0,0-.17-.18,0,0-.2-.35,0,0-.17-.17,0,0-.17-.21,0V8l-.18,0,0-.21h-.16l0-.18h-.15c-.1-.12.08-.4-.25-.37l0-.18-.17,0v-.2l-.18,0,0-.35-.17,0V6l-.19,0V5.45l-.23,0V4.64l-.19,0V4.19c0-1.16,0-2.32,0-3.48,0-.11,0-.25.14-.28,0,0,0-.07,0-.11,0-.31,0-.62,0-.92a.53.53,0,0,1,0-.13l.2,0v-.77l.18,0,0-.57.17,0,0-.36.17,0,0-.38.16,0,0-.19.2,0,0-.36.17,0,0-.39.17,0,0-.36.17,0,0-.39.2,0,0-.18.17,0v-.18l.17,0,0-.17.17,0,0-.2h.17l0-.17.2,0,0-.17.18,0,0-.17.34,0,0-.17h.22l0-.21h.36l0-.19.36,0,0-.17.21,0,0-.18H.65l0-.23h.4v-.18H4.42l0,.18H5.63l0,.22h.78l0,.19L7-6.9l0,.18h.4l0,.18.54,0,0,.21.4,0,0,.17.37,0,0,.17.4,0,0,.16.36,0,0,.17.4,0,0,.2.36,0,0,.16.4,0,0,.16.35,0,0,.17.16,0c.07.14-.08.41.24.39l0,.2h.17l0,.36.19,0c0,.14,0,.28,0,.43s0,.14.18.18v.83a.81.81,0,0,0,0,.16c0,.15,0,.15.18.19V1.71c0,.05,0,.1,0,.15s0,.21-.18.17V3l-.19,0v.76l-.2,0v.37l-.18,0,0,.4h-.21V5l-.18,0,0,.4-.17,0,0,.36-.18,0v.39l-.23,0V6.6l-.19,0V7l-.19,0,0,.37H10l0,.18-.19,0V7.8c.17,0,.2.08.2.23s0,.24,0,.36l.18,0V9l.19,0,0,.36.17,0,0,.39h.2l0,.19L11,10l0,.18.17,0,0,.38.17,0v.19h.2l0,.35.16,0,0,.22.16,0,0,.17c.24,0,.17.22.2.37l.17,0,0,.16.2,0,0,.2.17,0v.17l.18,0,0,.16.17,0,0,.17.2,0,0,.21.17,0,0,.17.16,0c.07.13-.07.37.21.37L14,14l.17,0,0,.21.2,0,0,.17c.27,0,.16.22.2.37l.17,0V15L15,15l0,.17h.2l0,.19h.17l0,.17.18,0v.2l.18,0,0,.16L16,16c0,.29.25.14.39.23l0,.14.17,0,0,.16.18,0,0,.21H17L17,17l.17,0,0,.17.17,0,0,.17.17,0,0,.2.17,0,0,.18H18L18,18h.17l0,.18.18,0v.17l.18,0v.2l.21,0,0,.17.17,0,0,.16c.12.07.36-.08.37.21l.21,0,0,.2.17,0,0,.17H20l0,.17.35,0,0,.18h.21l0,.17.35,0,0,.21.17,0,0,.17.19,0c.08.12-.06.36.22.36l0,.21.17,0v.18l.17,0,0,.35.17,0v.6l.21,0V23h-.19l0,.37-.17,0,0,.35-.16,0,0,.22h-.17l0,.17ZM6,6.42V6.24l.19,0V6l.21,0,0-.17.17,0,0-.17.16,0,0-.17.38,0,0-.38h.17l0,0s.09-.12.14-.14c.25-.06.26,0,.27-.31a.14.14,0,0,1,0-.07l.16,0,0-.21.21,0V4l.17,0,0-.35.18,0V2.86l.19,0v-.6l.2,0V.46l-.2,0v-1l-.19,0V-.93c-.32,0-.12-.29-.22-.41l-.15,0c-.06-.14.08-.4-.24-.37v-.22H7.84l0-.18-.17,0v-.17l-.17,0c0-.14.07-.36-.2-.36l0-.22L7-3v-.17l-.18,0,0-.17-.35,0,0-.18-.39,0,0-.21h-1l0-.17H1.09l0,.17H.86l0,.2c-.15,0-.37-.06-.38.21l-.16,0L.26-3H.06l0,.22-.17,0,0,.37-.17,0,0,.57-.16,0,0,.36-.18,0v.4l-.22,0v.75c-.15,0-.19.07-.18.2s0,.4,0,.63c-.19-.05-.2,0-.19.16s0,.12,0,.17V3.45l.18,0,0,.54.17,0,0,.18,0,0c.05,0,.13.09.16.16a1.18,1.18,0,0,1,0,.27l.17,0,0,.18.17,0V5l.18,0,0,.2.18,0v.17l.22,0c0,.29.26.13.37.21l0,.16H.85L.87,6h.2l.19,0v.19c.35,0,.35,0,.39.2h.22c0,.14.06.19.18.18h1c0,.15.07.18.19.18h2.2l0-.2h.35l0-.18Z" transform="translate(4.71 7.51)"/></svg>